<svg id="Layer_1" data-name="Layer 1" xmlns="http://www.w3.org/2000/svg" viewBox="0 0 1094 210"><defs><style>.cls-1{fill:#fff;}</style></defs><path class="cls-1" d="M416.9,173.53a8.57,8.57,0,0,1-8.16-5.93L382.53,86.68H382l-25.2,80.83a8.58,8.58,0,0,1-8.19,6H321.23a8.58,8.58,0,0,1-8.36-6.66L285.76,48.61a8.57,8.57,0,0,1,8.35-10.49h20.12a8.58,8.58,0,0,1,8.39,6.79l15.57,73h.52L362.79,44a8.57,8.57,0,0,1,8.15-5.92h23.7A8.57,8.57,0,0,1,402.79,44L427.4,119.7h.52l15.59-74.76a8.57,8.57,0,0,1,8.39-6.82H471a8.57,8.57,0,0,1,8.36,10.47L452.44,166.86a8.58,8.58,0,0,1-8.36,6.67Z"/><path class="cls-1" d="M528.27,38.86a8.69,8.69,0,0,1,8.48,10.54l-1.36,6.23.52.52a37.37,37.37,0,0,1,17.16-16,55.58,55.58,0,0,1,23.44-5q24.62,0,38,14.4t13.35,39a121.29,121.29,0,0,1-4.45,32.74,88.2,88.2,0,0,1-13.62,28.55,69.65,69.65,0,0,1-22.92,20.16q-13.74,7.6-32.6,7.6a53.79,53.79,0,0,1-11.66-1.31,45.5,45.5,0,0,1-11-3.93,36.27,36.27,0,0,1-9.17-6.68,26.65,26.65,0,0,1-6.15-9.56h-.79l-10.2,46.57a8.7,8.7,0,0,1-8.48,6.82H477.57a8.67,8.67,0,0,1-8.49-10.48L501.71,45.74a8.68,8.68,0,0,1,8.49-6.88Zm17.86,30a47.88,47.88,0,0,0-12.71,14.28,69.36,69.36,0,0,0-7.59,18.73,78.38,78.38,0,0,0-2.49,18.72q0,13.37,6.55,21.35t20.16,8q10.74,0,18.34-5.5A45.73,45.73,0,0,0,581,130.53a64.73,64.73,0,0,0,7.33-18.33,81.43,81.43,0,0,0,2.36-18.86A38.93,38.93,0,0,0,589,81.82a28.59,28.59,0,0,0-5-9.56,24.44,24.44,0,0,0-8.25-6.55,25.44,25.44,0,0,0-11.52-2.49A29.5,29.5,0,0,0,546.13,68.85Z"/><path class="cls-1" d="M27.12,38.3A7.87,7.87,0,0,1,35,46.17v11h.79A42.63,42.63,0,0,1,54.11,40a53,53,0,0,1,23-5.37q14.93,0,24.49,4.06A36.39,36.39,0,0,1,116.71,50a43.58,43.58,0,0,1,7.72,17.55,108.79,108.79,0,0,1,2.23,22.92v75.42a7.87,7.87,0,0,1-7.87,7.87H97.34a7.87,7.87,0,0,1-7.87-7.87V97.23q0-16.76-5.24-25T65.63,64q-15.19,0-22,9t-6.81,29.73v63.11A7.87,7.87,0,0,1,29,173.71H7.5a7.87,7.87,0,0,1-7.87-7.87V46.17A7.87,7.87,0,0,1,7.5,38.3Z"/><path class="cls-1" d="M190.85,141.23q8.39,8.13,24.1,8.12,11.27,0,19.38-5.63,6.09-4.22,8.64-8.81a6.26,6.26,0,0,1,5.49-3.11h19.3a6.43,6.43,0,0,1,5.88,9q-7.65,17.42-20.71,25.85-16.25,10.47-39.29,10.47a77.42,77.42,0,0,1-28.81-5.1,59.92,59.92,0,0,1-21.74-14.54,65.34,65.34,0,0,1-13.75-22.53,82.39,82.39,0,0,1-4.85-28.81,78.91,78.91,0,0,1,5-28.28,65.43,65.43,0,0,1,36-37.72,70.07,70.07,0,0,1,28.16-5.5q17.3,0,30.12,6.68a60.33,60.33,0,0,1,21.09,17.94,73.87,73.87,0,0,1,11.91,25.67,93.55,93.55,0,0,1,2.85,23.66A6.43,6.43,0,0,1,273.2,115H188.72a6.42,6.42,0,0,0-6.33,7.39Q184.3,134.88,190.85,141.23Zm42-71.24q-6.67-7.34-20.3-7.33-8.91,0-14.8,3a28.17,28.17,0,0,0-9.42,7.46,27.39,27.39,0,0,0-5,9.43c-.08.27-.16.54-.23.81a6.41,6.41,0,0,0,6.18,8.1H234a6.4,6.4,0,0,0,6.12-8.33A35.88,35.88,0,0,0,232.89,70Z"/><path class="cls-1" d="M729.9,173.71a8.5,8.5,0,0,1-8.3-10.35l1.89-8.51H723q-18.08,22.28-47.41,22.26Q636,177.11,636,141a47.25,47.25,0,0,1,.39-5.37c.27-2.18.61-4.41,1.05-6.68s.87-4.41,1.31-6.42.78-3.41,1.11-4.6a4.54,4.54,0,0,0,.12-.5L655.28,45a8.5,8.5,0,0,1,8.32-6.74h19.84a8.51,8.51,0,0,1,8.33,10.23l-14.3,68.74a6.53,6.53,0,0,1-.2.76,28.47,28.47,0,0,0-.79,3.43c-.26,1.48-.53,3-.79,4.58a41.9,41.9,0,0,0-.52,4.59c-.09,1.48-.13,2.66-.13,3.53q0,6,5.63,10A20.84,20.84,0,0,0,692.85,148a32.12,32.12,0,0,0,14.79-3.27,36.54,36.54,0,0,0,11-8.51,47.39,47.39,0,0,0,7.59-12,73.26,73.26,0,0,0,4.58-13.88L744.59,45a8.5,8.5,0,0,1,8.32-6.74h19.84a8.5,8.5,0,0,1,8.32,10.24L756.33,167a8.49,8.49,0,0,1-8.32,6.76Z"/><path class="cls-1" d="M867.47,64.36q-4.85-4.84-15.85-4.85-9.95,0-16.36,3t-6.42,10.35a9.54,9.54,0,0,0,3.8,7.6q3.79,3.14,13.22,6l18.6,6a98.26,98.26,0,0,1,14,5.51,45.33,45.33,0,0,1,11.27,7.72,33.13,33.13,0,0,1,7.59,10.87,36.4,36.4,0,0,1,2.75,14.67q0,12.57-5.63,21.35a44.62,44.62,0,0,1-14.8,14.27A65.21,65.21,0,0,1,859,174.76a116.16,116.16,0,0,1-23.31,2.35A99.93,99.93,0,0,1,815.48,175,60,60,0,0,1,797,168.08a40.32,40.32,0,0,1-13.49-12.84q-5.24-8-5.24-20v-1.05a4.45,4.45,0,0,1,4.45-4.45h25.41a4.45,4.45,0,0,1,4.45,4.45h0a13.93,13.93,0,0,0,2.36,8.12,19.05,19.05,0,0,0,6.15,5.63,31.42,31.42,0,0,0,8.65,3.4,40.08,40.08,0,0,0,9.56,1.18,45.78,45.78,0,0,0,8.38-.78,24,24,0,0,0,7.59-2.75,16.84,16.84,0,0,0,5.5-5,13.18,13.18,0,0,0,2.1-7.72q0-7.08-3.67-10a33.4,33.4,0,0,0-9.69-5L821,112.16a101.75,101.75,0,0,1-12.44-5,32.31,32.31,0,0,1-9.17-6.54,26,26,0,0,1-5.76-9.43,40.87,40.87,0,0,1-2-13.62q0-12,5.63-20.17a44.23,44.23,0,0,1,14.53-13.23,66.71,66.71,0,0,1,19.52-7.33,99.07,99.07,0,0,1,20.29-2.23,121.07,121.07,0,0,1,21.22,1.83,50.19,50.19,0,0,1,17.94,6.68A34.4,34.4,0,0,1,903,56.37a39.75,39.75,0,0,1,4.12,16.75,4.48,4.48,0,0,1-4.45,4.73h-26a4.47,4.47,0,0,1-4.39-3.78A17.48,17.48,0,0,0,867.47,64.36Z"/><path class="cls-1" d="M969.65,2a7.12,7.12,0,0,1,7,8.55L967.72,54h.52a39.4,39.4,0,0,1,6-6.28,49,49,0,0,1,9.42-6.29,62.72,62.72,0,0,1,12.84-4.84,63.75,63.75,0,0,1,16.5-2q39.54,0,39.55,36.41a35.32,35.32,0,0,1-.53,5.37q-.52,3.27-1.17,6.68t-1.31,6.41c-.42,1.91-.72,3.46-.89,4.66,0,.13,0,.25-.07.39l-15.53,73.51a7.12,7.12,0,0,1-7,5.65h-22.66a7.12,7.12,0,0,1-7-8.57l14.72-70.79q.51-3.15,1.44-8.38a51.71,51.71,0,0,0,.91-8.12q0-6-5.63-9.95A20.89,20.89,0,0,0,995.74,64a32.16,32.16,0,0,0-14.8,3.27,36.66,36.66,0,0,0-11,8.51,47.12,47.12,0,0,0-7.59,12,74,74,0,0,0-4.59,13.88l-14,66.38a7.13,7.13,0,0,1-7,5.65H914.39a7.12,7.12,0,0,1-7-8.57L940,7.66A7.12,7.12,0,0,1,947,2Z"/><path class="cls-1" d="M1073.27,36.94h-3.87v7.69h-3.47v-20h7a8.17,8.17,0,0,1,5.34,1.55,5.49,5.49,0,0,1,1.88,4.49,5.66,5.66,0,0,1-1,3.36,6.26,6.26,0,0,1-2.7,2.08l4.49,8.32v.18h-3.72Zm-3.87-2.8H1073a4,4,0,0,0,2.75-.88,3.11,3.11,0,0,0,1-2.42,3.3,3.3,0,0,0-.91-2.49,3.85,3.85,0,0,0-2.72-.9h-3.67Z"/><path class="cls-1" d="M1073,55.5A20.5,20.5,0,1,1,1093.5,35,20.53,20.53,0,0,1,1073,55.5Zm0-38A17.5,17.5,0,1,0,1090.5,35,17.52,17.52,0,0,0,1073,17.5Z"/></svg>