<svg xmlns="http://www.w3.org/2000/svg" fill="none" viewBox="0 0 1000 1000" height="1000" width="1000">
<path fill="#FAF9F5" d="M34.3613 381.566C36.2539 360.142 39.4538 340.897 39.6172 318.914C39.6444 315.128 37.9968 293.744 38.8955 292.682C40.4614 290.857 48.1818 292.628 50.2379 292.532C57.1413 292.219 64.6031 289.345 71.1117 288.896C75.1421 288.61 78.0151 290.203 81.5281 290.407C101.136 291.511 120.852 289.795 140.078 288.719C164.261 287.37 187.531 287.806 212.136 288.868C257.478 290.816 303.487 291.538 348.653 289.631C384.341 288.119 418.382 286.948 454.043 287.343C482.61 287.67 510.795 288.078 539.431 287.425C560.168 286.948 580.851 288.324 601.589 289.182C626.779 290.23 648.715 294.793 674.477 294.126C702.458 293.404 732.673 290.04 760.437 292.832C813.445 298.171 868.918 294.058 922.185 294.371C929.524 294.412 938.946 296.618 946.762 297.081C950.411 297.299 957.927 296.305 960.746 297.054C963.864 297.885 962.23 305.321 962.298 307.201C962.829 323.708 963.646 339.821 964.273 356.001C964.899 372.182 963.061 389.043 964.313 405.632C964.695 410.74 966.043 414.363 965.73 420.519C964.218 449.72 960.95 478.839 961.345 508.027C961.931 552.224 957.927 596.734 960.61 640.672C960.705 642.238 961.917 643.695 961.985 645.234C962.067 647.073 960.76 649.388 961.291 651.486C957.464 650.451 954.224 651.309 950.466 651.363C929.755 651.649 906.567 651.731 885.965 653.379C856.118 655.763 826.843 652.494 798.276 654.401C783.367 655.395 766.836 655.654 752.008 655.926H745.323C743.089 654.087 739.781 655.218 737.548 655.163C730.045 654.959 720.364 653.801 712.671 652.589C700.021 650.587 686.813 651.431 673.728 651.527C670.841 651.54 667.955 650.532 665.558 650.696C663.312 650.846 660.724 652.562 658.042 652.889C653.821 653.393 650.213 652.494 645.733 653.202C619.916 657.288 585.957 652.862 559.338 651.568C548.431 651.036 535.169 649.634 524.507 649.974C521.852 650.056 517.917 651.499 515.588 651.391C507.119 651.023 498.65 650.138 489.663 650.75C464.718 652.453 439.269 650.505 413.916 649.96C377.274 649.184 340.864 650.505 304.141 649.96C293.588 649.797 282.314 649.647 271.462 649.416C223.41 648.394 175.099 646.637 126.734 645.52C99.8284 649.252 73.7124 648.435 46.6023 650.001C44.0152 650.151 41.4009 649.92 38.8138 650.001C38.664 645.439 39.0181 640.821 38.8547 636.245C38.3372 622.244 39.5219 608.065 38.8274 593.955C38.3372 583.836 35.8046 573.73 35.1374 563.596C34.9059 560.069 36.0497 554.866 34.3749 551.379V543.221C35.6004 542.445 35.1102 540.402 35.1238 539.149C35.5731 496.722 37.0573 455.359 35.5731 413.219L34.3749 398.645C34.7289 393.115 33.8983 387.055 34.3749 381.593L34.3613 381.566Z"></path>
<path fill="#141413" d="M774.434 453.837C795.674 456.009 804.838 482.203 809.727 500.07C810.075 501.351 810.242 502.535 810.117 503.858C811.44 504.039 810.827 502.131 810.869 501.212C811.412 488.066 809.323 465.757 821.468 457.207C824.727 454.909 829.351 454.965 833.25 455.355C843.362 456.343 860.186 470.77 863.599 480.379C866.37 488.177 871.022 494.903 875.395 502.159C881.315 511.948 882.025 517.686 884.657 528.339C885.131 530.274 887.248 532.043 887.93 534.16C892.164 547.347 898.682 572.037 899.42 585.461C899.81 592.536 898.153 602.061 898.111 609.608C897.916 645.007 899.086 683.33 902.373 718.493C903.668 732.376 907.986 746.539 909.462 760.576C909.936 765.074 909.114 771.535 909.727 775.908C910.047 778.122 911.593 779.974 911.663 782.411C911.802 787.229 909.309 798.37 906.746 802.325C900.298 812.309 888.223 801.67 884.95 794.081C884.03 791.922 883.571 789.806 883.181 787.508C880.437 771.326 881.927 757.484 881.482 741.442C880.228 696.518 877.053 651.065 874.685 606.545C873.125 577.287 864.922 560.117 857.721 533.241C856.189 527.531 856.133 519.914 854.17 514.803C850.395 504.985 845.409 495.391 839.699 486.813C836.677 482.273 834.448 475.059 827.819 474.475C821.746 473.945 821.913 488.33 822.22 492.146C823.557 508.523 830.186 524.969 832.067 542.264C833.947 559.671 836.092 600.933 830.994 616.822C830.312 618.966 826.328 626.208 824.142 626.639C812.178 628.979 814.281 620.777 811.676 613.34C810.674 610.486 808.292 606.893 807.429 603.941C802.22 585.963 805.381 564.058 803.431 545.787C801.342 526.333 794.239 501.198 784.462 483.624C784.044 482.872 780.409 477.747 779.949 477.301C775.214 472.748 764.35 473.931 763.445 481.006C762.456 488.762 763.807 502.507 766.3 510.082C768.557 516.934 770.27 521.097 772.206 528.367C777.526 548.405 781.969 563.515 782.052 584.612C782.08 592.382 782.303 609.274 780.089 616C778.515 620.763 775.367 623.172 770.465 621.139C767.192 619.788 768.376 617.852 767.373 616.265C753.487 594.081 754.949 570.686 750.089 545.982C747.275 531.681 743.598 517.546 739.267 503.69C738.013 499.666 735.98 492.313 734.462 488.888C733.724 487.23 732.066 487.801 731.342 487.035C730.562 486.228 730.799 484.264 729.629 483.039C728.32 481.674 720.604 479.042 718.724 479.557C718.083 479.738 717.512 483.094 717.484 483.805C716.941 497.452 722.359 510.514 723.208 523.158C724.671 544.604 719.712 572.163 716.231 593.19C715.172 599.61 713.612 615.262 709.086 619.412C701.885 626.027 694.671 627.6 685.423 624.94C681.049 623.673 676.899 619.663 675.353 615.29C673.807 610.917 674.448 605.013 673.278 600.501C672.108 595.989 670.896 586.882 671.133 580.852C671.258 577.482 673.027 571.926 672.665 568.765C671.829 561.328 664.963 547.166 662.679 539.256C658.737 525.568 656.815 511.363 653.514 497.619C653.013 495.544 650.506 486.771 649.754 485.448C646.76 480.184 637.136 484.752 634.67 489.055C632.205 493.358 636.648 509.414 637.4 515.207C638.626 524.607 638.723 535.594 640.297 545.035C641.871 554.477 646.509 566.161 647.623 575.463C649.643 592.327 646.676 613.967 647.567 631.611C648.278 645.564 652.428 659.17 649.81 673.193C648.57 679.807 644.768 687.466 643.264 693.942C642.526 697.131 642.874 701.378 642.275 704.191C642.136 704.818 641.021 704.762 640.771 705.235C640.228 706.252 640.241 707.7 639.615 708.48C637.442 711.126 627.484 713.076 624.239 711.767C622.122 710.903 615.186 705.166 613.89 703.133C610.617 697.98 604.545 683.957 602.038 677.816C593.695 657.387 590.353 636.61 580.116 616.933C579.071 614.928 576.578 606.252 574.433 606.197C569.099 606.043 565.144 610.583 563.751 615.276C561.648 622.267 564.28 636.735 565.84 644.255C569.03 659.727 574.113 677.203 577.971 692.786C582.135 709.636 589.545 725.233 594.113 741.846C596.216 749.463 598.445 754.379 602.651 761.383C606.216 774.153 611.815 779.57 606.174 793.315C603.626 799.526 595.478 802.366 590.506 797.214C586.286 792.855 583.277 789.917 580.812 783.957C578.486 778.331 575.562 769.53 576.355 763.528C576.718 760.743 578.751 758.069 578.612 755.131C578.5 752.569 575.52 744.533 574.823 740.592C572.525 727.489 568.848 714.955 565.882 701.838C563.779 692.549 562.79 682.787 560.757 673.61C555.422 649.658 543.514 620.749 552.01 596.783C554.308 590.308 566.119 583.233 572.846 582.648C581.105 581.924 589.099 585.782 594.907 590.99C596.982 592.856 605.715 612.115 607.177 615.875C614.378 634.438 614.433 650.55 626.815 667.511C628.807 670.227 630.241 673.402 632.08 669.071C637.01 657.457 633.835 636.165 633.904 623.228C633.974 611.516 635.645 599.359 634.768 587.564C633.835 575.045 627.331 561.217 625.046 548.768C622.108 532.697 617.748 503.175 620.381 487.606C623.361 469.949 639.434 458.251 656.746 466.328C664.378 469.893 666.969 474.558 669.671 482.217C672.693 490.809 678.556 506.629 680.102 514.998C681.077 520.248 680.757 526.445 681.579 531.737C683.013 541.039 685.464 550.23 686.23 559.643C687.303 572.775 683.974 582.509 691.244 594.819C694.294 599.986 698.932 597.772 700.576 592.689C705.464 577.621 706.76 541.429 705.269 525.484C703.779 509.539 702.038 492.773 704.044 477.162C704.866 470.84 707.526 462.401 713.863 459.672C717.484 458.112 729.587 459.644 733.696 460.702C735.618 461.19 745.743 466.453 746.871 467.623C747.637 468.417 747.373 469.921 748.194 470.464C749.281 466.955 751.676 467.066 753.18 465.604C756.83 462.081 760.325 457.833 765.479 455.898C767.902 454.993 770.757 455.355 772.86 453.795C773.362 453.837 773.891 453.739 774.378 453.795L774.434 453.837Z"></path>
<path fill="#141413" d="M88.3042 769.906L90.7694 756.064C99.6413 736.721 98.5828 715.262 102.162 694.68C103.806 685.21 108.067 674.585 109.948 664.559C111.981 653.739 113.36 641.804 114.07 630.803C116.09 599.763 122.329 567.72 127.664 536.722C130.797 518.479 131.243 506.587 139.335 489.25C143.597 480.114 149.154 470.77 158.708 466.147C161.926 464.587 166.062 463.863 169.558 464.796C172.441 465.562 173.862 465.785 176.466 466.356C177.58 466.607 187.497 474.656 188.096 475.853C189.614 478.931 193.917 499.179 193.889 502.73C193.862 507.743 190.213 519.371 189.363 525.554C188.931 528.701 187.455 537.432 187.664 539.869C187.901 542.557 192.845 546.331 194.892 543.211C196.94 540.092 199.098 533.853 200.812 530.177C204.837 521.543 205.282 518.257 208.012 509.33C210.603 500.891 217.511 494.068 222.984 487.133C224.098 485.712 224.433 483.665 225.672 482.245C227.775 479.822 239.294 469.935 241.968 468.946C246.411 467.317 248.709 468.445 252.636 468.292C259.475 468.041 267.72 465.548 271.606 473.528C273.681 471.369 277.859 469.099 280.686 468.194C288.166 465.827 305.338 472.678 310.923 478.053C312.065 479.154 313.305 484.097 316.021 482.259C316.842 481.716 316.982 480.031 318.82 478.986C327.121 474.238 339.447 480.922 347.859 482.259C349.085 485.796 352.038 487.704 353.806 490.698C354.837 492.452 358.194 499.499 358.444 501.24C360.13 513.09 359.391 527.796 360.004 539.869C361.912 577.733 364.224 616.167 367.609 653.474C367.887 656.579 368.932 659.671 368.389 662.999L374.127 654.741C385.06 631.305 392.024 603.189 405.408 581.353C409.043 575.421 416.077 570.617 422.985 569.35C428.138 568.403 439.322 572.232 442.776 576.187C450.77 585.378 450.004 596.839 450.325 608.063C450.715 622.239 449.615 635.789 450.311 649.77C451.411 671.563 445.241 688.455 440.088 709.19C436.272 724.55 433.751 738.35 427.832 753.042C425.784 758.111 422.497 765.867 421.606 771.076C420.116 779.71 421.564 788.733 420.603 796.601C420.492 797.506 417.08 806.488 416.578 807.004C416.272 807.324 410.924 809.789 410.325 809.9C404.642 811.014 404.183 806.182 402.873 802.506C402.609 801.74 401.341 801.336 401.035 799.79C399.921 794.136 402.47 782.885 403.222 776.98C403.904 771.633 403.542 770.463 405.074 765.129C413.723 734.813 415.715 701.893 420.951 670.38C423.904 652.639 430.408 634.856 434.795 617.504C436.272 611.656 436.341 598.05 432.901 592.856C428.737 586.589 420.436 589.932 416.174 594.36C412.901 597.758 406.23 611.085 404.28 615.833C396.258 635.357 389.252 668.75 374.907 683.149C372.414 685.642 368.333 689.834 364.865 690.224C360.422 690.725 357.205 688.887 353.946 686.102C349.433 682.244 347.093 678.846 345.798 673.012C339.085 642.71 347.692 611.266 347.581 580.657C347.511 563.431 346.564 538.393 344.071 521.627C343.779 519.607 340.492 510.235 339.433 508.843C338.806 508.021 332.525 501.741 331.773 501.295C324.085 496.755 319.558 504.08 319.21 511.238C318.486 526.152 315.213 540.524 313.653 555.647C312.734 564.615 313.263 562.108 314.447 570.171C315.436 576.939 315.45 585.782 316.035 592.828C316.912 603.425 321.271 625.344 305.046 626.639C300.533 627.001 293.625 626.082 292.079 621.32C289.224 612.505 295.575 602.646 295.283 594.987C295.213 593.148 293.792 591.951 293.959 589.11C294.14 585.879 296.104 581.632 296.299 577.747C296.661 570.505 294.628 562.805 294.28 555.605C293.514 539.549 296.425 519.58 294.753 504.192C294.196 499.025 290.645 491.923 284.586 492.439C281.689 492.689 276.787 499.067 275.728 501.866C270.129 516.627 269.126 531.932 265.561 547.041C264.224 552.722 261.425 558.348 260.185 563.654C256.062 581.339 266.996 602.27 253.012 617.128C248.931 621.459 243.959 621.779 238.402 620.359C227.859 617.657 233.75 596.421 236.285 589.054C240.101 577.914 243.848 568.834 246.731 557.039C251.383 538.045 258.179 511.043 256.801 492.063C256.689 490.517 258.764 488.553 256.466 488.679C246.633 489.208 243.346 496.755 237.58 503.551C234.948 506.657 230.477 510.848 228.235 514.288C223.876 520.972 221.09 529.662 217.901 536.583C209.725 554.338 197.079 572.149 190.756 590.544C188.458 597.229 189.697 604.79 186.146 611.642C185.63 612.644 181.048 618.006 180.505 618.131C179.962 618.256 174.558 617.156 173.653 616.808C167.887 614.552 166.8 604.261 167.232 598.9C167.511 595.474 169.252 593.441 169.558 590.614C169.836 588.01 168.834 585.643 168.931 583.776C170.421 556.942 176.16 526.974 174.084 500.404C173.764 496.198 170.867 486.576 166.536 485.183C161.745 483.651 155.101 492.104 153.193 496.198C145.7 512.171 145.978 523.381 143.123 539.897C139.641 560.019 135.24 579.209 133.889 599.693C132.817 616.098 134.99 632.474 133.889 648.99C132.608 668.472 128.527 686.701 124.697 705.751C122.524 716.543 116.187 736.61 117.162 746.748C118.012 755.507 118.054 762.428 115.296 771.41C114.781 773.067 111.508 781.046 110.672 781.952C109.934 782.745 103.931 785.99 102.859 786.129C96.8836 786.965 90.3237 782.146 88.3181 776.674V769.85L88.3042 769.906Z"></path>
</svg>
