<svg xmlns="http://www.w3.org/2000/svg" fill="none" viewBox="0 0 1000 1000" height="1000" width="1000">
<path fill="#FAF9F5" d="M534.931 903.889C534.385 902.809 532.993 902.096 531.902 901.751C525.141 899.657 512.635 898.944 505.407 899.223C504.26 899.267 503.502 900.147 502.489 900.181C500.351 900.259 496.33 898.176 493.88 898.031C489.481 897.775 482.999 898.41 478.188 898.432C470.96 898.466 462.362 899.59 455.803 898.978C450.401 898.477 448.63 898.198 442.884 898.8C435.11 899.613 432.025 899.022 424.151 898.41C413.148 897.563 401.855 897.953 390.674 897.998C375.115 898.065 358.866 898.087 343.397 897.998C331.581 897.931 320.032 898.365 308.271 897.942C292.524 897.374 276.253 899.134 260.327 899.635C251.45 899.913 244.367 898.844 235.97 898.521C225.034 898.098 213.084 899.535 202.103 899.668C189.206 899.824 176.443 898.688 163.613 899.568C162.678 895.77 162.811 891.694 162.912 887.774C163.524 863.841 164.961 842.491 164.181 818.636C162.132 756.113 164.426 693.913 162.165 631.691C161.687 618.616 160.996 609.183 161.753 595.897C162.299 586.43 161.531 577.242 161.709 567.987C161.876 559.323 163.791 550.536 163.814 541.86C163.836 534.521 161.898 526.658 162.344 519.408C164.003 492.145 162.199 464.848 163.29 437.462C163.847 423.496 164.237 409.163 164.705 395.587C165.417 375.362 166.665 354.67 167.21 334.312C167.5 323.509 164.326 310.801 166.008 300.333C166.553 296.925 168.458 293.194 168.669 289.374C169.004 283.438 166.821 276.088 166.832 269.94C166.832 265.797 168.346 261.621 167.188 257.522C167.979 256.442 179.762 258.079 182.023 258.135C190.921 258.335 200.71 256.732 209.342 257.455C212.638 257.734 216.347 259.171 219.699 259.349C224.343 259.594 230.246 257.255 234.522 259.928C235.012 252.466 237.329 244.537 236.315 237.186C236.527 229.702 236.304 222.118 236.939 214.745C237.073 213.242 237.518 207.528 238.554 207.205C243.309 207.384 248.822 204.8 253.477 205.468C279.983 209.255 309.886 210.669 336.704 208.887C340.357 208.642 344.578 207.406 348.309 207.127C361.539 206.159 380.004 209.355 393.881 210.09C404.417 210.647 414.919 211.382 425.31 211.315C430.811 211.282 436.19 211.393 441.737 211.348C448.953 211.293 455.29 210.669 461.939 211.827C467.53 212.796 474.802 212.518 480.627 212.607C492.154 212.785 503.825 212.061 515.096 213.331C529.073 214.912 542.047 212.663 555.857 212.518C575.759 212.306 596.039 214.099 615.885 213.698C628.548 213.442 641.278 211.371 653.952 211.694C670.289 212.106 686.917 213.353 703.355 213.197C710.516 213.13 718.501 211.694 725.685 212.161C727.957 212.306 731.766 214.578 734.505 214.456C734.628 217.618 734.917 221.238 736.387 224.111V228.355C734.862 230.738 735.897 233.834 735.808 236.574C735.173 257.756 732.768 279.462 732.712 300.856C732.668 319.711 733.358 337.196 732.389 356.229C730.964 384.406 729.293 412.682 729.048 441.071C728.558 496.789 730.039 552.396 732.467 608.392C733.135 623.839 731.621 639.164 732.3 654.566C733.013 670.748 732.378 687.654 733.358 703.825C733.804 711.153 733.202 719.406 733.291 727.023C733.38 734.641 732.679 741.201 732.256 748.807C732.111 751.435 733.369 756.436 733.158 758.441C732.645 763.341 730.407 772.184 730.273 776.694C730.195 779.423 732.155 784.301 731.999 786.595C731.688 791.384 730.908 796.039 730.875 801.017C730.819 810.873 726.81 821.465 728.146 831.644C728.669 835.664 728.848 834.951 728.792 839.217C728.781 840.353 729.56 845.164 729.093 845.598C725.339 846.768 722.444 844.852 719.014 844.474C705.36 842.937 692.051 846.166 678.642 845.264C676.537 845.119 675.134 844.05 673.541 843.828C669.933 843.315 656.658 843.516 654.119 845.576C653.629 845.966 650.41 854.809 650.388 855.51C650.254 858.929 653.896 862.538 654.809 866.224C657.426 876.749 654.252 879.321 653.25 888.409C652.771 892.775 653.796 897.14 653.862 901.461C652.392 901.361 650.777 901.662 649.341 901.428C640.665 899.991 630.13 900.582 620.841 900.203C599.525 899.323 578.332 902.041 557.104 900.838L541.602 903.889H534.931Z"></path>
<path fill="#141413" d="M201.349 493.546C202.059 479.667 205.627 464.219 207.261 450.114C207.553 447.629 207.031 444.88 207.312 442.307C208.144 434.608 210.98 426.847 211.399 419.15C212.291 403.043 208.715 382.986 207.592 366.953C205.977 343.816 211.423 324.252 212.827 301.427C213.123 296.537 211.52 273.734 219.717 273.784C224.005 273.814 223.958 279.828 224.248 283.246C224.98 292.098 225.055 301.141 225.552 309.904C226.973 334.924 225.627 354.886 223.76 379.26C221.957 402.81 224.31 426.657 224.267 450.068C224.258 457.251 225.423 462.56 225.602 469.486C225.963 484.041 223.25 498.562 222.787 513.197C222.215 531.709 220.554 550.826 220.406 569.681C220.079 611.257 220.244 653.466 221.452 694.713C221.881 709.401 220.138 724.342 221.023 739.018C221.59 748.482 222.747 757.989 223.381 767.598C224.579 786.004 221.407 803.199 223.029 821.636C223.18 823.396 221.922 827.097 222.049 828.166C222.14 828.923 223.011 829.622 223.059 830.657C223.119 831.938 221.031 836.778 221.332 837.056C226.607 835.646 232.129 835.237 237.438 834.284C238.685 834.057 239.661 833.007 241.075 832.79C244.815 832.187 249.262 832.985 252.626 833.319C254.576 833.513 257.745 832.199 259.883 832.059C265.339 831.717 272.117 833.621 277.463 833.837C281.284 833.991 285.267 832.841 288.886 832.818C303.387 832.747 316.696 836.132 331.481 834.857C332.339 834.787 333.21 835.475 333.856 835.472C334.167 835.471 334.131 834.469 335.054 834.132C341.116 831.873 352.83 831.299 359.402 831.722C370.887 832.463 382.661 832.991 393.993 834.657C395.341 834.852 396.854 834.424 398.214 834.664C399.774 834.938 400.927 836.627 403.077 836.742C405.772 836.889 411.994 835.709 415.256 835.464C416.782 835.348 417.996 835.4 420.122 835.203C431.1 834.13 446.391 834.134 456.923 836.448C458.383 836.766 460.56 838.396 462.009 838.636C468.428 839.695 476.866 838.842 483.292 838.687C495.72 838.377 507.195 839.642 519.658 839.722C526.229 839.767 533.749 840.643 540.274 840.287C543.604 840.109 547.419 838.67 550.692 838.425C555.603 838.064 560.964 839.337 566.297 838.851C575.059 838.053 582.748 832.782 591.815 833.353C595.369 833.574 600.297 835.206 604.063 835.695C614.793 837.061 625.02 838.241 635.839 839.641C640.118 840.194 644.881 839.087 649.054 841.556C658.16 846.949 643.971 853.278 638.638 853.853C627.55 855.038 616.189 858.128 605.589 858.832L595.878 858.865C595.203 856.963 593.392 858.239 592.044 858.065C579.364 856.404 567.276 851.745 554.201 851.8C542.931 851.838 530.499 854.386 519.074 854.759C511.802 854.995 503.995 854.899 496.645 854.991C489.261 855.083 483.506 852.451 477.169 852.562C460.253 852.864 441.804 857.782 424.996 857.026C421.532 856.871 419.146 856.077 415.882 855.854C410.68 855.515 404.315 857.196 398.947 857.103C394.002 857.02 388.161 855.636 383.173 855.976C367.919 857.041 352.414 856.336 336.969 856.979C325.733 857.451 321.16 855.417 310.196 853.828C293.237 851.369 279.506 855.024 262.945 854.979C249.236 854.948 235.644 850.483 221.606 852.19C219.491 852.453 218.032 855.777 215.462 856.376C213.036 856.952 209.516 856.819 207.606 855.1C203.216 851.139 205.445 848.447 204.94 844.072C204.298 838.517 204.524 839.574 204.874 834.305C204.99 832.589 203.837 830.689 204.266 829.017C204.387 828.549 205.489 828.612 205.499 828.255C205.623 825.304 202.856 817.183 203.069 814.309C203.356 810.41 205.268 805.837 205.834 802.027C208.436 784.388 205.864 768.214 205.428 751.109C205.363 748.493 207.194 743.23 206.995 740.301C206.901 738.943 205.478 736.241 205.248 734.126C204.834 730.341 205.557 726.663 205.053 722.745C203.555 711.056 202.283 700.669 202.533 688.696C202.763 677.948 206.872 664.514 206.102 654.081C205.285 642.981 205.668 634.537 206.12 623.299C206.964 602.726 207.538 581.363 206.977 560.617C206.545 544.603 202.933 530.371 202.001 515.072C201.577 508.113 202.911 500.891 201.318 494.137C201.317 493.936 201.316 493.736 201.316 493.524L201.349 493.546Z"></path>
<path fill="#141413" d="M849.486 46.1086C857.342 52.2644 858.195 53.0947 864.145 60.9603C866.144 63.5961 869.798 65.731 871.805 68.5002C888.295 91.1858 887.201 129.286 870.706 151.697C866.053 158.012 854.443 171.651 848.357 175.653C841.048 180.465 833.309 185.56 825.496 189.599C819.241 192.831 809.199 197.461 801.514 199.172C795.415 200.531 789.544 198.261 787.391 205.709C783.491 219.175 778.228 231.128 771.306 243.314C767.279 250.406 763.498 260.094 757.299 266.29C756.625 266.966 753.79 267.873 753.204 268.332C751.916 269.358 750.083 272.101 748.553 273.375C745.983 275.538 742.122 277.387 740.092 279.071C738.827 280.117 738.801 283.031 737.335 284.078C735.87 285.126 732.186 285.28 730.067 286.222C726.752 287.692 721.691 291.109 717.789 291.901C715.176 292.426 709.226 291.801 706.26 292.202C700.848 292.94 695.147 294.621 689.575 295.658C676.722 298.058 663.81 300.239 650.889 302.643C636.049 305.408 621.062 306.464 607.005 310.197C605.891 307.631 601.963 309.852 599.733 310.053C584.241 311.44 569.831 312.818 554.74 317.729C550.439 319.125 545.657 320.874 541.044 322.835C535.996 324.979 532.285 326.909 526.944 328.635C524.098 329.553 520.419 330.533 517.81 331.493C516.73 331.892 516.097 333.626 514.946 334.141C512.197 335.377 508.369 335.54 505.254 337.557C497.575 342.514 493.569 343.803 485.208 347.272C480.941 349.046 479.336 350.749 476.774 354.339C471.927 361.145 471.017 365.507 468.102 372.889C467.25 375.049 464.801 377.929 464.35 379.898C464.112 380.949 464.505 380.803 465.314 380.721C469.57 380.254 472.897 378.615 476.122 378.254C483.094 377.479 491.546 377.217 498.53 378.148C499.396 378.263 500.073 379.126 500.996 379.082C502.287 379.027 502.444 377.556 503.241 377.073C507.539 374.506 511.985 370.691 516.183 369.078C520.382 367.465 523.704 366.127 527.753 364.423C536.404 360.791 541.075 359.796 550.325 359.241C553.071 359.077 560.465 359.035 562.561 358.072C563.809 357.495 565.023 354.477 565.912 353.486C569.519 349.454 576.506 342.999 581.82 341.754C583.778 341.291 586.2 341.859 588.634 340.966C590.621 340.233 592.268 338.483 594.735 337.766C597.466 336.977 601.41 337.075 604.275 336.479C614.479 334.35 621.421 330.865 631.447 335.072C636.953 337.386 635.061 335.792 638.059 333.693C639.943 332.375 642.863 331.943 645.198 330.319C647.125 328.976 649.749 324.914 651.691 324.563C653.744 324.195 655.496 325.685 657.722 325.406C660.202 325.09 663.856 322.584 666.713 322.401C669.259 322.248 674.55 323.046 677.214 323.556C693.051 326.611 719.251 338.94 731.33 349.852C736.922 354.906 739.058 356.484 745.027 360.935C757.419 370.188 767.225 382.809 780.826 390.439C783.574 391.981 789.074 393.838 791.611 395.404C793.187 396.38 795.735 399.798 797.289 400.965C799.779 402.858 806.469 405.937 808.197 407.775C808.984 408.62 808.475 409.811 808.593 409.915C808.901 410.209 810.275 410.249 810.955 410.789C814.198 413.339 817.479 416.143 820.341 418.649C823.58 421.49 826.355 425.719 829.01 427.947C830.02 428.79 831.548 428.777 832.217 429.518C833.173 430.576 835.15 435.623 836.411 436.752C837.673 437.881 840.756 438.132 842.2 440.254C842.788 441.122 844.118 444.892 844.087 445.853C844.071 446.155 841.772 450.979 841.553 451.227C839.232 453.832 833.388 453.491 830.378 452.422C827.665 451.458 825.939 450.579 822.443 449.595C814.112 447.228 808.297 438.071 799.681 435.799C790.435 425.632 777.995 416.326 769.32 405.823C762.715 397.818 761.782 394.181 752.717 387.206C738.938 376.597 726.884 364.623 711.226 356.369C704.152 352.644 693.066 348.433 685.281 348.108C678.358 347.821 671.777 349.521 665.104 350.803C671.766 356.216 677.744 361.949 685.275 366.228C688.728 368.185 692.769 369.147 696.45 371.738C700.131 374.329 703.484 377.776 705.101 382.03C705.537 383.164 706.969 387.507 706.889 388.405C706.765 389.874 705.428 390.278 704.956 391.332C704.14 393.155 705.152 394.601 702.752 395.682C701.742 396.144 697.804 397.095 696.662 397.208C692.038 397.675 678.346 392.617 674.362 389.821C672.907 388.804 672.306 387.155 671.267 386.214C670.229 385.272 667.923 384.584 667.119 383.461C665.948 381.802 666.176 378.531 664.658 376.848C663.451 375.514 657.738 372.521 655.82 371.61C649.929 368.817 640.883 366.437 634.46 364.647C627.358 362.674 616.991 362.091 609.692 363.154C607.657 363.455 604.169 363.709 603.641 365.704C602.647 369.401 603.993 368.215 605.303 369.041C612.087 373.319 619.176 375.07 626.022 378.72C629.826 380.745 632.861 383.91 635.906 386.316C640.358 389.853 645.04 391.659 648.521 396.671C651.513 400.988 654.129 406.465 657.128 410.893C658.629 413.961 654.674 421.495 651.934 422.306C647.581 423.583 646.762 419.794 644.216 417.704C642.655 416.425 639.902 415.72 638.805 414.737C632.307 408.891 626.205 401.28 619.158 396.157C613.523 392.055 596.657 383.55 590.072 382.964C587.762 382.756 585.724 382.633 583.308 382.354C571.263 380.946 558.4 379.475 545.589 380.724C541.43 381.13 541.867 382.286 539.208 383.706C537.413 384.662 526.471 388.621 531.613 390.086C544.576 393.771 555.687 396.731 568.228 402.494C569.994 403.303 571.723 404.962 573.418 405.697C574.827 406.304 577.621 406.382 577.84 406.503C578.788 407.048 579.683 409.137 581.528 410.13C583.119 410.994 584.845 410.935 586.019 411.534C597.756 417.669 610.534 424.411 620.822 432.441C621.876 433.259 624.753 438.441 625.556 439.933C625.795 440.376 626.655 440.391 626.757 440.798C627.194 442.501 625.546 451.481 624.453 452.975C622.918 455.086 621.103 454.972 618.999 455.6C617.092 456.172 616.373 457.208 613.552 456.306C612.972 456.118 612.948 455.35 612.239 455.058C605.637 452.319 603.25 451.781 598.679 446.444C596.483 443.864 583.289 438.553 579.29 436.617C578.003 435.992 574.991 435.626 574.847 435.456C572.191 432.291 570.043 430.523 566.909 428.301C566.769 428.198 564.713 428.522 563.518 427.935C559.632 426.026 555.118 423.876 551.555 421.769C544.476 417.586 531.127 409.506 523.497 407.666C520.508 406.942 516.165 407.08 513.293 406.259C509.206 405.087 506.816 403.546 502.133 402.667C485.848 399.583 472.177 401.385 456.43 406.514C454.931 407.005 452.257 407.244 451.191 407.698C447.61 409.207 445.159 418.559 443.477 422.13C440.587 428.261 436.972 434.581 434.369 441.03C431.639 447.787 430.222 452.982 426.693 459.431C426.33 460.088 423.92 465.287 423.951 465.62C424.026 466.497 426.093 465.804 426.425 466.688L424.751 468.908C427.844 469.135 428.674 464.556 429.764 463.754C431.623 462.393 435.571 462 437.486 461.003C438.568 460.436 439.166 459.05 439.977 458.622C449.955 453.483 462.497 449.974 473.109 447.965C486.072 445.514 496.688 446.55 509.946 450.128C518.621 452.464 532.283 457.591 539.592 462.619C545.62 466.765 549.96 469.918 555.186 475.585C562.859 483.894 569.158 490.69 574.061 501.385C575.756 505.077 578.677 511.741 579.494 515.307C580.006 517.519 579.142 519.3 579.31 520.796C579.433 521.926 580.815 522.647 581.155 523.843C582.098 527.1 582.019 537.123 581.532 540.723C581.485 541.06 580.499 540.986 580.542 541.329C581.185 546.099 579.964 544.164 577.912 547.712C572.172 557.663 574.173 561.994 564.601 571.483C563.41 572.659 561.586 574.799 560.371 575.743C553.165 581.341 541.092 585.234 531.754 583.373C529.642 582.953 527.32 581.62 525.137 581.137C517.889 579.53 508.465 578.478 501.218 575.767C499.141 574.987 491.059 568.22 489.548 566.281C487.952 564.234 487.222 561.556 485.14 559.583C481.627 556.257 474.983 552.996 470.897 549.794C464.785 544.995 461.087 542.684 454.051 539.034C440.624 532.075 432.768 526.655 420.92 517.548C415.609 513.46 415.838 515.041 410.98 512.544C408.114 511.076 404.552 508.054 400.825 506.559C396.491 504.811 387.022 503.739 384.566 502.414C383.735 501.962 383.808 500.384 382.766 499.755C377.478 496.591 370.426 500.685 365.149 499.563C364.301 499.379 363.705 498.556 362.857 498.372C362.699 498.337 359.848 498.419 359.707 498.495C359.514 498.618 357.624 501.52 357.035 502.114C354.835 504.31 351.145 506.606 350.071 509.705C349.729 510.697 348.778 516.243 349.18 516.609C349.322 516.746 350.364 516.259 351.038 516.899C352.861 518.642 353.013 526.019 355.32 528.759C355.776 529.301 362.58 535.207 363.1 535.511C370.009 539.458 380.877 545.623 388.009 548.821C389.901 549.678 395.013 550.632 396.681 551.659C397.758 552.32 402.659 556.656 404.496 558.063C410.131 562.366 414.721 566.899 419.914 571.073C422.611 573.243 421.517 571.746 424.249 572.654C424.692 572.794 432.048 576.749 432.4 577.04C433.644 578.059 433.85 580.01 434.628 580.7C434.829 580.888 438.444 581.642 439.828 582.574C441.805 583.906 443.439 586.787 444.627 587.809C455.367 597.027 462.916 606.995 472.172 617.898C478.632 625.521 490.116 635.799 498.269 642.64C504.061 647.503 511.234 651.2 516.192 657.218C524.194 666.924 520.903 667.121 533.443 672.695C547.051 678.762 556.966 685.587 569.909 693.044C577.849 697.621 586.612 700.13 594.511 704.766C598.373 707.034 601.277 710.987 605.792 712.781C607.38 713.41 608.622 712.722 610.398 713.307C617.476 715.616 621.403 718.025 628.888 719.673C631.929 720.339 636.101 723.112 638.01 725.563C641.357 729.836 641.791 739.483 635.247 740.869C634.729 740.978 630.537 741.208 629.954 741.164C623.794 740.764 618.536 736.996 613.328 734.62C609.232 732.746 605.525 732.31 601.664 730.813C594.238 727.922 591.754 726.13 583.623 724.13C570.735 720.942 544.97 707.114 533.7 698.921C525.943 693.283 518.895 684.97 510.924 679.323C505.448 675.446 503.022 674.799 497.588 669.96C490.904 664.001 483.822 658.658 477.078 652.804C464.261 641.68 452.387 628.435 438.395 619.121C432.759 615.365 422.561 606.627 417.82 601.244C414.24 597.186 410.63 588.522 407.416 583.861C404.202 579.201 403.915 580.925 399.886 579.415C398.585 578.924 397.548 578.005 396.382 577.55C391.345 575.599 386.914 573.332 382.235 570.857C381.21 570.316 379.638 568.112 378.696 568.392C377.731 571.473 376.105 574.114 374.805 576.993C373.239 580.456 371.964 585.62 369.201 588.653C366.144 592.006 366.222 589.212 365.941 589.184C364.371 589.044 360.203 593.221 358.002 593.353L359.922 595.045C352.682 596.172 348.669 590.834 348.957 583.922C349.128 579.895 352.113 572.743 353.329 568.832C354.544 564.921 355.482 561.015 357.041 557.251C356.797 556.54 345.679 553.459 343.31 551.358C342.473 550.617 342.003 549.284 341.232 548.527C340.462 547.77 336.721 544.558 336.475 544.171C335.992 543.385 336.815 541.484 336.075 540.111C333.289 534.968 329.858 531.704 329.536 524.85C329.493 523.949 330.606 514.79 330.93 513.878C331.359 512.658 332.634 512.146 332.862 511.117C334.111 505.709 331.69 504.594 336.252 498.63C340.276 493.368 345.883 490.856 350.762 486.837C351.857 485.934 353.827 485.47 353.942 485.341C354.13 485.14 352.236 481.27 352.027 480.2C347.955 459.202 360.836 435.869 378.549 424.274C392.218 408.504 409.053 398.624 427.186 389.38C428.161 388.886 431.406 386.817 431.897 386.085C432.574 385.085 432.2 384.069 432.557 383.512C440.927 370.336 448.642 357.042 456.361 343.816C456.776 343.11 458.327 342.002 458.689 340.965C459.384 338.971 457.451 337.625 456.923 335.894C450.803 315.721 455.748 289.73 459.849 269.758C463.95 249.786 475.284 231.534 481.974 212.5C486.519 199.553 492.21 188.97 498.772 176.917C502.953 169.246 513.107 161.274 519.802 155.706C531.883 145.632 551.406 136.862 567.504 137.391C568.354 137.418 569.168 139.657 570.811 138.398C571.056 138.204 572.349 133.541 572.854 132.473C582.164 113.216 602.182 77.9298 622.006 68.7852C627.575 66.2085 631.474 64.2563 636.982 61.4043C644.892 57.3037 648.999 56.7783 657.479 55.4884C660.354 55.0481 662.736 54.961 665.478 56.0348C668.392 57.1765 670.564 57.6821 673.011 58.6733C674.464 59.2667 676.94 59.4417 675.684 61.0009C679.556 62.509 686.986 67.1396 689.601 70.3744C690.602 71.6197 691.984 74.2033 692.394 75.83C694.608 73.4991 696.328 70.7406 698.624 68.4607C706.814 60.2932 721.747 48.6641 731.511 42.5554C736.608 39.3599 746.098 37.4293 751.788 36.318C758.394 35.029 768.624 32.418 775.247 32.5338C799.057 32.9125 825.762 27.26 846.71 43.1624C847.903 44.0726 848.667 45.4772 849.522 46.1399L849.486 46.1086ZM836.384 58.3085C821.888 49.1482 809.486 52.5812 794.136 54.4619C781.277 56.0368 767.382 56.7144 754.967 59.3561C752.918 59.7915 746.335 61.2799 744.812 61.918C743.821 62.3344 742.87 63.775 741.811 64.3406C741.417 64.4647 741.745 62.6933 740.549 63.2002C737.726 66.5494 733.954 68.7728 729.92 70.1529C722.326 77.2805 713.936 84.5228 705.86 91.2442C704.255 92.5789 698.644 94.6449 697.202 95.9029C695.761 97.1609 696.198 99.433 694.876 101.007C694.095 101.936 692.128 102.812 691.027 103.615C690.129 104.271 689.447 105.74 688.701 106.131C684.613 108.295 679.639 104.968 676.926 101.973C673.102 97.7396 674.121 92.7806 672.977 87.6612C672.047 83.4997 667.779 82.2942 664.717 80.1573C662.889 78.8947 662.792 77.0931 659.574 76.2598C655.482 75.1888 643.831 74.9508 639.82 75.9724C628.853 78.7727 615.608 83.2047 609.526 93.4101C602.887 104.553 598.146 118.136 591.344 129.356C591.132 133.262 589.021 136.379 588.798 140.286C588.575 144.193 590.535 149.52 589.617 153.201C589.319 154.368 586.388 159.621 585.579 160.45C584.884 161.15 579.813 162.905 578.723 162.97C577.122 163.066 572.461 162.911 570.844 162.751C569.397 162.615 568.282 161.511 567.108 161.469C560.611 161.223 549.389 165.534 543.349 168.262C535.289 171.892 529.618 178.346 522.291 182.869C520.377 184.055 517.026 184.747 515.096 186.793C494.456 208.549 485.972 241.012 482.264 270.131C481.869 273.212 481.176 275.239 480.831 277.491C480.624 278.876 481.914 280.283 481.877 281.534C481.853 282.429 480.838 284.855 480.717 286.558C480.183 294.4 480.028 302.219 479.01 309.99C482.043 305.501 485.434 301.214 488.527 296.789C494.425 288.346 503.09 278.242 507.855 269.89C511.066 264.275 515.042 261.381 519.577 256.623C531.919 243.655 544.949 232.854 559.553 222.238C565.764 217.714 571.523 212.739 577.919 208.695C582.111 206.045 586.146 203.192 590.2 200.651C598.867 195.221 607.728 190.796 616.163 185.236C627.453 177.786 628.46 191.772 620.526 197.146C618.618 198.443 615.763 199.206 613.884 200.434C598.782 210.355 584.161 223.104 572.119 235.675C569.63 238.268 567.67 243.719 564.35 246.038C559.264 249.589 551.998 258.46 548.014 264.211C547.296 265.258 546.609 267.943 545.651 268.715C540.661 272.763 535.068 278.097 531.174 283.117C528.7 286.312 525.552 290.015 522.652 292.811C521.818 293.608 519.812 293.271 520.387 295.412C521.195 298.466 523.827 298.453 526.522 297.99C530.674 297.272 535.586 294.355 539.273 294.435C541.552 294.488 546.067 295.545 548.347 295.419C550.07 295.316 551.683 293.568 553.145 293.391C554.84 293.178 557.002 294.632 560.385 294.117C563.691 293.617 565.333 294.021 567.635 293.715C569.606 293.452 573.037 290.948 575.313 290.398C579.02 289.506 588.463 289.955 592.998 289.672C612.837 288.403 631.879 286.669 651.516 283.159C653.592 282.789 655.892 281.524 657.638 281.241C667.767 279.54 681.483 280.903 690.977 275.703C692.673 274.776 693.775 273.059 695.51 272.218C701.083 269.53 707.991 268.624 713.607 264.226C716.122 262.256 717.697 258.949 720.908 257.785C721.133 256.701 719.546 257.588 719.642 256.969C719.698 256.597 722.973 252.607 723.388 252.259C724.471 251.346 726.488 250.756 727.853 249.893C733.366 246.372 739.449 242.336 744.941 238.102C749.932 234.254 753.569 228.112 757.7 224.628C759.675 222.959 763.508 221.769 764.607 220.554C765.151 219.952 769.388 211.174 769.953 209.801C770.518 208.429 770.401 206.863 771.281 205.538C767.218 206.25 762.403 206.327 758.465 207.077C751.284 208.445 746.279 210.385 738.413 210.567C721.267 210.971 703.257 207.946 693.235 192.292C690.194 187.532 689.816 183.281 689.336 177.877C689.088 175.058 690.371 171.511 691.544 168.941C696.121 158.938 708.945 144.523 718.189 139.227C734.638 129.805 759.433 135.268 774.111 146.348C780.316 151.029 786.797 156.029 788.176 164.125C788.554 166.333 789.086 170.374 789.296 172.57C789.382 173.446 788.831 177.463 789.056 177.683C791.607 178.546 792.913 176.872 794.908 176.283C804.359 173.507 809.438 171.507 818.104 166.446C822.114 164.107 823.709 163.532 827.591 161.67C832.341 159.388 844.436 149.915 849.131 146.353C857.434 140.064 862.157 132.696 864.031 122.275C865.905 111.853 863.867 98.5314 859.576 88.1898C855.584 78.5665 845.258 63.968 836.375 58.3536L836.384 58.3085ZM757.313 158.501C743.902 151.429 723.716 150.275 711.766 161.034C705.934 166.293 701.807 171.517 705.553 179.648C709.9 189.072 723.969 192.222 733.267 193.036C734.332 193.128 735.402 192.361 736.631 192.399C738.901 192.486 741.762 193.854 743.476 193.796C745.424 193.723 757.026 190.35 759.385 189.505C760.598 189.075 762.378 187.317 763.945 186.665C765.513 186.013 773.165 183.758 773.476 183.36C774.582 181.899 772.769 178.65 772.577 177.121C772.305 175.007 772.872 173.478 772.197 171.164C770.734 166.12 765.723 163.665 761.584 161.068C760.575 160.437 758.143 158.954 757.302 158.513L757.313 158.501ZM414.221 426.373L411.409 429.9C400.932 439.734 384.594 451.759 379.449 465.122C378.079 468.685 378.541 470.621 377.892 474.498C377.63 476.076 376.587 477.477 376.662 479.102C379.659 476.233 387.036 479.807 389.274 478.244C389.66 477.976 391.832 470.493 392.37 469.233C397.323 457.679 405.463 443.858 411.574 432.457C412.487 430.762 415.41 429.448 414.232 426.373L414.221 426.373ZM482.818 475.152C481.926 475.518 480.436 475.976 479.514 475.864C476.469 475.511 470.798 475.639 467.397 476.044C458.791 477.085 444.863 481.491 436.53 484.29C431.565 485.96 424.179 488.01 420.128 490.964C419.615 491.341 418.816 491.6 418.806 492.371C421.347 491.761 422.751 493.596 424.679 494.484C433.583 498.58 443.033 500.813 450.99 506.249C453.911 508.249 457.62 512.244 460.727 514.189C463.613 515.99 467.233 516.074 469.328 519.184C470.099 520.332 470.195 521.743 471.107 522.993C475.409 528.872 482.553 530.228 487.623 534.766C490.299 537.149 490.132 536.97 492.908 538.99C494.261 539.968 495.286 542.73 497.807 542.355C498.029 542.152 496.841 541.32 496.652 540.762C493.312 531.033 491 520.383 489.183 510.372C488.601 507.183 489.819 502.937 489.178 500.075C488.019 494.889 486.133 489.48 484.741 484.32C483.938 481.355 484.11 478.087 482.829 475.141L482.818 475.152ZM528.735 486.767C525.66 484.419 519.027 481.169 515.254 479.655C510.145 477.618 509.109 477.468 509.406 482.973C509.514 484.763 511.068 490.773 511.056 491.309C511.034 492.248 509.77 492.937 509.804 494.252C509.859 496.468 511.46 499.541 512.014 501.895C514.476 512.425 516.709 523.426 520.261 533.533C521.243 536.319 521.933 538.899 522.834 541.646C523.519 543.758 533.856 555.198 536.069 557.118C537.223 558.12 538.183 559.055 539.846 559.067C542.147 556.887 546.421 556.162 547.306 553.052C552.631 546.228 558.436 540.145 556.64 530.669C556.232 528.529 554.022 525.158 553.586 523.846C553.15 522.533 553.271 520.272 552.612 518.393C551.627 515.562 546.539 501.609 545.374 500.039C544.719 499.163 542.369 498.489 541.286 497.539C537.174 493.914 533.249 490.234 528.725 486.79L528.735 486.767Z"></path>
</svg>
